<?xml version="1.0" encoding="UTF-8" standalone="no"?>
<!DOCTYPE svg PUBLIC "-//W3C//DTD SVG 1.1//EN" "http://www.w3.org/Graphics/SVG/1.1/DTD/svg11.dtd">
<svg width="100%" height="100%" viewBox="0 0 410 410" version="1.1" xmlns="http://www.w3.org/2000/svg" xmlns:xlink="http://www.w3.org/1999/xlink" xml:space="preserve" xmlns:serif="http://www.serif.com/" style="fill-rule:evenodd;clip-rule:evenodd;stroke-linejoin:round;stroke-miterlimit:2;">
    <g transform="matrix(1,0,0,1,-1316,-11)">
        <rect id="Plan-de-travail2" serif:id="Plan de travail2" x="1316" y="11" width="410" height="410" style="fill:none;"/>
        <g id="Plan-de-travail21" serif:id="Plan de travail2">
            <g>
                <g transform="matrix(1.02244,0,0,0.800747,-38.7382,28.9997)">
                    <path d="M1726,118.388L1726,340.612C1726,384.979 1697.79,421 1663.04,421L1387.96,421C1353.21,421 1325,384.979 1325,340.612L1325,118.388C1325,74.021 1353.21,38 1387.96,38L1663.04,38C1697.79,38 1726,74.021 1726,118.388Z" style="fill:rgb(0,188,120);"/>
                </g>
                <g id="Credit-Card-Icon" serif:id="Credit Card Icon" transform="matrix(15.125,0,0,15.125,-11320.1,-46043.9)">
                    <path d="M858,3067L840,3067C838.343,3067 837,3065.66 837,3064L837,3056L861,3056L861,3064C861,3065.66 859.657,3067 858,3067ZM844,3062L840,3062L840,3064L844,3064L844,3062ZM852,3062L846,3062L846,3064L852,3064L852,3062ZM840,3050L858,3050C859.657,3050 861,3051.34 861,3053L837,3053C837,3051.34 838.343,3050 840,3050Z" style="fill:rgb(0,88,52);"/>
                </g>
            </g>
        </g>
    </g>
</svg>
