<?xml version="1.0" encoding="UTF-8" standalone="no"?>
<!DOCTYPE svg PUBLIC "-//W3C//DTD SVG 1.1//EN" "http://www.w3.org/Graphics/SVG/1.1/DTD/svg11.dtd">
<svg width="100%" height="100%" viewBox="0 0 475 54" version="1.1" xmlns="http://www.w3.org/2000/svg" xmlns:xlink="http://www.w3.org/1999/xlink" xml:space="preserve" xmlns:serif="http://www.serif.com/" style="fill-rule:evenodd;clip-rule:evenodd;stroke-linejoin:round;stroke-miterlimit:2;">
    <g transform="matrix(1,0,0,1,-13,-10)">
        <g transform="matrix(1,0,0,1,0,242)">
            <g transform="matrix(3.12236,0,0,3.12236,-3750.21,-1321.53)">
                <path d="M1211.69,356.762C1212.28,354.648 1212.64,353.294 1212.93,351.869L1213.02,351.869C1213.31,353.342 1213.64,354.553 1214.28,356.857L1214.92,359.184L1211,359.184L1211.69,356.762ZM1210.48,349.352L1205.44,366L1209.1,366L1210.17,362.176L1215.75,362.176L1216.8,366L1220.6,366L1215.54,349.352L1210.48,349.352Z" style="fill:rgb(0,188,120);fill-rule:nonzero;"/>
                <path d="M1222.85,349.352L1222.85,366L1226.44,366L1226.44,359.802L1226.68,359.802C1227.44,359.802 1227.89,359.992 1228.2,360.585L1230.95,366L1235.27,366L1232.73,361.416C1231.95,360.015 1231.4,359.398 1230.52,358.97L1230.52,358.875C1232.47,358.495 1234.04,357.142 1234.04,354.244C1234.04,350.753 1231.95,349.352 1228.27,349.352L1222.85,349.352ZM1226.44,352.344L1227.86,352.344C1229.45,352.344 1230.36,353.033 1230.36,354.553C1230.36,356.097 1229.74,356.928 1227.82,356.928L1226.44,356.928L1226.44,352.344Z" style="fill:rgb(0,188,120);fill-rule:nonzero;"/>
                <path d="M1244.49,349.114C1240.07,349.114 1236.58,351.822 1236.58,357.83C1236.58,363.388 1238.93,366.237 1243.66,366.237C1246.74,366.237 1248.41,365.596 1249.62,364.765L1249.62,357.427L1245.98,357.427L1245.98,363.055C1245.65,363.198 1244.91,363.293 1244.42,363.293C1241.64,363.293 1240.31,361.511 1240.31,357.403C1240.31,353.461 1242.16,352.249 1244.35,352.249C1245.89,352.249 1246.77,352.914 1247.38,353.579L1249.71,351.038C1249.26,350.516 1247.77,349.114 1244.49,349.114Z" style="fill:rgb(0,188,120);fill-rule:nonzero;"/>
                <path d="M1263.18,366L1263.18,363.008L1256.65,363.008L1256.65,359.042L1262.02,359.042L1262.02,356.049L1256.65,356.049L1256.65,352.344L1262.89,352.344L1262.89,349.352L1253.04,349.352L1253.04,366L1263.18,366Z" style="fill:rgb(0,188,120);fill-rule:nonzero;"/>
                <path d="M1269.78,353.888C1270.47,355.717 1271.16,357.355 1271.99,358.97L1275.65,366L1279.9,366L1279.9,349.352L1276.45,349.352L1276.45,354.624C1276.45,356.382 1276.45,358.685 1276.64,361.013L1276.55,361.013C1275.93,359.35 1275.03,357.498 1274.2,355.907L1270.8,349.352L1266.46,349.352L1266.46,366L1269.92,366L1269.92,359.707C1269.92,356.833 1269.85,355.55 1269.69,353.888L1269.78,353.888Z" style="fill:rgb(0,188,120);fill-rule:nonzero;"/>
                <path d="M1286.07,366L1289.71,366L1289.71,352.344L1293.84,352.344L1293.84,349.352L1281.94,349.352L1281.94,352.344L1286.07,352.344L1286.07,366Z" style="fill:rgb(0,188,120);fill-rule:nonzero;"/>
                <path d="M1304.64,357.284L1304.64,357.189C1305.9,356.738 1307.07,355.55 1307.07,353.674C1307.07,350.326 1304.64,349.352 1301.7,349.352L1295.74,349.352L1295.74,366L1301.25,366C1306.78,366 1307.87,363.055 1307.87,360.894C1307.87,358.543 1306.24,357.474 1304.64,357.284ZM1303.58,354.173C1303.58,355.123 1302.89,356.025 1301.13,356.025L1299.32,356.025L1299.32,352.344L1301.27,352.344C1302.98,352.344 1303.58,353.152 1303.58,354.173ZM1301.82,363.008L1299.32,363.008L1299.32,359.018L1301.63,359.018C1302.98,359.018 1304.19,359.564 1304.19,361.013C1304.19,361.963 1303.65,363.008 1301.82,363.008Z" style="fill:rgb(0,88,52);fill-rule:nonzero;"/>
                <path d="M1315.26,356.762C1315.85,354.648 1316.21,353.294 1316.5,351.869L1316.59,351.869C1316.88,353.342 1317.21,354.553 1317.85,356.857L1318.49,359.184L1314.57,359.184L1315.26,356.762ZM1314.05,349.352L1309.01,366L1312.67,366L1313.74,362.176L1319.32,362.176L1320.37,366L1324.17,366L1319.11,349.352L1314.05,349.352Z" style="fill:rgb(0,88,52);fill-rule:nonzero;"/>
                <path d="M1329.79,353.888C1330.48,355.717 1331.17,357.355 1332,358.97L1335.66,366L1339.91,366L1339.91,349.352L1336.47,349.352L1336.47,354.624C1336.47,356.382 1336.47,358.685 1336.66,361.013L1336.56,361.013C1335.94,359.35 1335.04,357.498 1334.21,355.907L1330.82,349.352L1326.47,349.352L1326.47,366L1329.94,366L1329.94,359.707C1329.94,356.833 1329.87,355.55 1329.7,353.888L1329.79,353.888Z" style="fill:rgb(0,88,52);fill-rule:nonzero;"/>
                <path d="M1347.44,349.352L1343.81,349.352L1343.81,366L1347.44,366L1347.44,349.352ZM1347.54,357.522L1347.54,357.617L1352.64,366L1357.18,366L1351.48,357.45L1356.65,349.352L1352.48,349.352L1347.54,357.522Z" style="fill:rgb(0,88,52);fill-rule:nonzero;"/>
            </g>
        </g>
    </g>
</svg>
